<svg id="a" xmlns="http://www.w3.org/2000/svg" viewBox="0 0 377.6 377.6"><defs><style>.b{fill:#222;stroke-width:0px;}</style></defs><path class="b" d="M98.3,329h21.8v-98.9h-.6c-.6,1.9-1.6,4.4-3.1,7.5-1.5,3.1-3.7,6.1-6.5,9.1-2.8,2.9-6.5,5.5-10.9,7.7-4.4,2.2-9.9,3.3-16.3,3.3s-16.2-1.8-23.7-5.4c-7.5-3.6-14-8.4-19.7-14.5-5.7-6-10.2-13-13.5-20.8-3.3-7.8-5-16.1-5-24.8s1.6-16.6,4.8-24.4c3.2-7.7,7.6-14.5,13-20.3,5.5-5.8,11.8-10.4,19-13.9,7.2-3.5,14.8-5.2,23-5.2s18.8,2.6,25.4,7.7c6.5,5.1,11.2,11.7,14,19.8h.6v-23.8h45.6v4h-21.8v193h21.8v4h-68v-4ZM49.2,188.7c0,9.8.3,18.8.9,26.8.6,8,2,14.9,4.3,20.6,2.3,5.7,5.7,10,10.2,13,4.5,3,10.7,4.5,18.4,4.5s14.3-1.7,19.1-5.1c4.8-3.4,8.5-7.8,11.2-13.2,2.6-5.4,4.4-11.4,5.4-18,.9-6.6,1.4-13,1.4-19.3s-.1-13.7-.4-19.1c-.3-5.4-.8-10.2-1.6-14.3-.8-4.2-1.8-7.7-3.1-10.8-1.3-3-2.9-5.9-4.8-8.5-2.8-3.8-6.5-6.9-11.1-9.4-4.5-2.5-10.3-3.7-17.3-3.7s-12,1.3-16.3,4c-4.3,2.6-7.6,6.4-9.9,11.3-2.4,4.9-4,10.8-5,17.7-.9,6.9-1.4,14.7-1.4,23.4"></path><polygon class="b" points="154.8 250.5 176.6 250.5 176.6 54.1 154.8 54.1 154.8 50.1 201 50.1 201 250.5 222.8 250.5 222.8 254.5 154.8 254.5 154.8 250.5"></polygon><path class="b" d="M211.3,329h21.8v-193h-21.8v-4h45.6v23.8h.6c2.8-7.9,7.5-14.5,14-19.7,6.5-5.2,15-7.8,25.4-7.8s15.8,1.8,23,5.2c7.2,3.5,13.5,8.1,19,13.9,5.5,5.8,9.8,12.5,13,20.3,3.2,7.8,4.8,15.9,4.8,24.4s-1.7,17-5,24.8c-3.3,7.8-7.8,14.8-13.5,20.8-5.7,6.1-12.2,10.9-19.7,14.5-7.5,3.6-15.4,5.4-23.7,5.4s-11.9-1.1-16.3-3.3c-4.4-2.2-8.1-4.7-10.9-7.7-2.8-2.9-5-6-6.5-9.1-1.5-3.1-2.6-5.6-3.1-7.5h-.6v98.9h21.8v4h-68v-4ZM328.4,188.7c0-8.7-.5-16.5-1.4-23.4-.9-6.9-2.6-12.8-5-17.7-2.4-4.9-5.7-8.7-9.9-11.3-4.3-2.6-9.7-4-16.3-4s-12.8,1.2-17.3,3.7c-4.5,2.5-8.2,5.6-11.1,9.4-2.1,2.6-3.7,5.5-5,8.5-1.2,3-2.2,6.6-3,10.8-.8,4.2-1.3,8.9-1.6,14.3-.3,5.4-.4,11.8-.4,19.1s.5,12.7,1.4,19.3c.9,6.6,2.7,12.6,5.4,18,2.6,5.4,6.4,9.8,11.2,13.2,4.8,3.4,11.2,5.1,19.1,5.1s13.9-1.5,18.4-4.5c4.5-3,7.9-7.4,10.2-13,2.3-5.7,3.7-12.5,4.3-20.6.6-8,.9-17,.9-26.8"></path></svg>